<mxfile>
    <diagram id="N_f7JGh9qu5mkWohpCK6" name="Page-1">
        <mxGraphModel dx="2106" dy="652" grid="1" gridSize="10" guides="1" tooltips="1" connect="1" arrows="1" fold="1" page="1" pageScale="1" pageWidth="850" pageHeight="1100" math="0" shadow="0">
            <root>
                <mxCell id="0"/>
                <mxCell id="1" parent="0"/>
                <mxCell id="20" value="" style="group;fontColor=#000000;" vertex="1" connectable="0" parent="1">
                    <mxGeometry x="-110" y="140" width="240" height="240" as="geometry"/>
                </mxCell>
                <mxCell id="2" value="1" style="ellipse;whiteSpace=wrap;html=1;aspect=fixed;sketch=1;fillColor=#1ba1e2;strokeColor=#006EAF;fontSize=20;fontColor=#000000;" vertex="1" parent="20">
                    <mxGeometry x="100" width="40" height="40" as="geometry"/>
                </mxCell>
                <mxCell id="6" value="" style="endArrow=none;html=1;entryX=0;entryY=1;entryDx=0;entryDy=0;sketch=1;fillColor=#1ba1e2;strokeColor=#006EAF;fontColor=#000000;" edge="1" parent="20" target="2">
                    <mxGeometry width="50" height="50" relative="1" as="geometry">
                        <mxPoint x="74" y="66" as="sourcePoint"/>
                        <mxPoint x="150" y="200" as="targetPoint"/>
                    </mxGeometry>
                </mxCell>
                <mxCell id="8" value="" style="endArrow=none;html=1;entryX=0;entryY=0;entryDx=0;entryDy=0;exitX=1;exitY=1;exitDx=0;exitDy=0;sketch=1;fillColor=#1ba1e2;strokeColor=#006EAF;fontColor=#000000;" edge="1" parent="20" source="2">
                    <mxGeometry width="50" height="50" relative="1" as="geometry">
                        <mxPoint x="590" y="51.71572875253787" as="sourcePoint"/>
                        <mxPoint x="165.85786437626803" y="65.85786437626803" as="targetPoint"/>
                    </mxGeometry>
                </mxCell>
                <mxCell id="9" value="2" style="ellipse;whiteSpace=wrap;html=1;aspect=fixed;sketch=1;fillColor=#1ba1e2;strokeColor=#006EAF;fontSize=20;direction=west;fontColor=#000000;" vertex="1" parent="20">
                    <mxGeometry x="40" y="60" width="40" height="40" as="geometry"/>
                </mxCell>
                <mxCell id="10" value="3" style="ellipse;whiteSpace=wrap;html=1;aspect=fixed;sketch=1;fillColor=#1ba1e2;strokeColor=#006EAF;fontSize=20;direction=west;fontColor=#000000;" vertex="1" parent="20">
                    <mxGeometry x="160" y="60" width="40" height="40" as="geometry"/>
                </mxCell>
                <mxCell id="11" value="6" style="ellipse;whiteSpace=wrap;html=1;aspect=fixed;sketch=1;fillColor=#1ba1e2;strokeColor=#006EAF;fontSize=20;direction=west;fontColor=#000000;" vertex="1" parent="20">
                    <mxGeometry y="140" width="40" height="40" as="geometry"/>
                </mxCell>
                <mxCell id="12" value="4" style="ellipse;whiteSpace=wrap;html=1;aspect=fixed;sketch=1;fillColor=#1ba1e2;strokeColor=#006EAF;fontSize=20;direction=west;fontColor=#000000;" vertex="1" parent="20">
                    <mxGeometry x="80" y="140" width="40" height="40" as="geometry"/>
                </mxCell>
                <mxCell id="13" value="5" style="ellipse;whiteSpace=wrap;html=1;aspect=fixed;sketch=1;fillColor=#1ba1e2;strokeColor=#006EAF;fontSize=20;direction=west;fontColor=#000000;" vertex="1" parent="20">
                    <mxGeometry x="200" y="140" width="40" height="40" as="geometry"/>
                </mxCell>
                <mxCell id="14" value="" style="endArrow=none;html=1;exitX=1;exitY=0;exitDx=0;exitDy=0;sketch=1;fillColor=#1ba1e2;strokeColor=#006EAF;fontColor=#000000;" edge="1" parent="20" target="9">
                    <mxGeometry width="50" height="50" relative="1" as="geometry">
                        <mxPoint x="30" y="141.71572875253787" as="sourcePoint"/>
                        <mxPoint x="61.71572875253787" y="110" as="targetPoint"/>
                    </mxGeometry>
                </mxCell>
                <mxCell id="15" value="" style="endArrow=none;html=1;sketch=1;fillColor=#1ba1e2;strokeColor=#006EAF;fontColor=#000000;" edge="1" parent="20" source="12" target="9">
                    <mxGeometry width="50" height="50" relative="1" as="geometry">
                        <mxPoint x="70" y="131.71572875253787" as="sourcePoint"/>
                        <mxPoint x="101.71572875253787" y="100" as="targetPoint"/>
                    </mxGeometry>
                </mxCell>
                <mxCell id="16" value="" style="endArrow=none;html=1;sketch=1;fillColor=#1ba1e2;strokeColor=#006EAF;entryX=0.196;entryY=-0.012;entryDx=0;entryDy=0;entryPerimeter=0;exitX=0.75;exitY=1;exitDx=0;exitDy=0;exitPerimeter=0;fontColor=#000000;" edge="1" parent="20" source="13" target="10">
                    <mxGeometry width="50" height="50" relative="1" as="geometry">
                        <mxPoint x="101.05572809000091" y="152.1114561800017" as="sourcePoint"/>
                        <mxPoint x="78.9442719099992" y="107.88854381999829" as="targetPoint"/>
                    </mxGeometry>
                </mxCell>
                <mxCell id="19" value="&lt;font style=&quot;font-size: 10px&quot;&gt;❌&amp;nbsp;&lt;/font&gt;&amp;nbsp; 满二叉树&lt;br&gt;&lt;font style=&quot;font-size: 10px&quot;&gt;❌&lt;/font&gt;&amp;nbsp; &amp;nbsp;完全二叉树&lt;br&gt;&lt;span style=&quot;font-family: monospace; font-size: 0px;&quot;&gt;%3CmxGraphModel%3E%3Croot%3E%3CmxCell%20id%3D%220%22%2F%3E%3CmxCell%20id%3D%221%22%20parent%3D%220%22%2F%3E%3CmxCell%20id%3D%222%22%20value%3D%22%22%20style%3D%22endArrow%3Dnone%3Bhtml%3D1%3Bsketch%3D1%3BfillColor%3D%231ba1e2%3BstrokeColor%3D%23006EAF%3B%22%20edge%3D%221%22%20parent%3D%221%22%3E%3CmxGeometry%20width%3D%2250%22%20height%3D%2250%22%20relative%3D%221%22%20as%3D%22geometry%22%3E%3CmxPoint%20x%3D%22131.0557280900009%22%20y%3D%22282.1114561800017%22%20as%3D%22sourcePoint%22%2F%3E%3CmxPoint%20x%3D%22108.9442719099992%22%20y%3D%22237.8885438199983%22%20as%3D%22targetPoint%22%2F%3E%3C%2FmxGeometry%3E%3C%2FmxCell%3E%3C%2Froot%3E%3C%2FmxGraphModel%3E&lt;/span&gt;" style="text;html=1;align=left;verticalAlign=middle;resizable=0;points=[];autosize=1;fontSize=12;spacingTop=0;spacing=0;fontColor=#000000;" vertex="1" parent="20">
                    <mxGeometry x="80" y="190" width="100" height="50" as="geometry"/>
                </mxCell>
                <mxCell id="21" value="" style="group;fontColor=#000000;" vertex="1" connectable="0" parent="1">
                    <mxGeometry x="170" y="140" width="240" height="240" as="geometry"/>
                </mxCell>
                <mxCell id="22" value="1" style="ellipse;whiteSpace=wrap;html=1;aspect=fixed;sketch=1;fillColor=#1ba1e2;strokeColor=#006EAF;fontSize=20;fontColor=#000000;" vertex="1" parent="21">
                    <mxGeometry x="50" width="40" height="40" as="geometry"/>
                </mxCell>
                <mxCell id="23" value="" style="endArrow=none;html=1;entryX=0;entryY=1;entryDx=0;entryDy=0;sketch=1;fillColor=#1ba1e2;strokeColor=#006EAF;fontColor=#000000;" edge="1" parent="21" target="22">
                    <mxGeometry width="50" height="50" relative="1" as="geometry">
                        <mxPoint x="24" y="66" as="sourcePoint"/>
                        <mxPoint x="100" y="200" as="targetPoint"/>
                    </mxGeometry>
                </mxCell>
                <mxCell id="24" value="" style="endArrow=none;html=1;entryX=0;entryY=0;entryDx=0;entryDy=0;exitX=1;exitY=1;exitDx=0;exitDy=0;sketch=1;fillColor=#1ba1e2;strokeColor=#006EAF;fontColor=#000000;" edge="1" parent="21" source="22">
                    <mxGeometry width="50" height="50" relative="1" as="geometry">
                        <mxPoint x="540" y="51.71572875253787" as="sourcePoint"/>
                        <mxPoint x="115.85786437626803" y="65.85786437626803" as="targetPoint"/>
                    </mxGeometry>
                </mxCell>
                <mxCell id="25" value="2" style="ellipse;whiteSpace=wrap;html=1;aspect=fixed;sketch=1;fillColor=#1ba1e2;strokeColor=#006EAF;fontSize=20;direction=west;fontColor=#000000;" vertex="1" parent="21">
                    <mxGeometry x="-10" y="60" width="40" height="40" as="geometry"/>
                </mxCell>
                <mxCell id="26" value="3" style="ellipse;whiteSpace=wrap;html=1;aspect=fixed;sketch=1;fillColor=#1ba1e2;strokeColor=#006EAF;fontSize=20;direction=west;fontColor=#000000;" vertex="1" parent="21">
                    <mxGeometry x="110" y="60" width="40" height="40" as="geometry"/>
                </mxCell>
                <mxCell id="28" value="6" style="ellipse;whiteSpace=wrap;html=1;aspect=fixed;sketch=1;fillColor=#1ba1e2;strokeColor=#006EAF;fontSize=20;direction=west;fontColor=#000000;" vertex="1" parent="21">
                    <mxGeometry x="60" y="140" width="40" height="40" as="geometry"/>
                </mxCell>
                <mxCell id="29" value="4" style="ellipse;whiteSpace=wrap;html=1;aspect=fixed;sketch=1;fillColor=#1ba1e2;strokeColor=#006EAF;fontSize=20;direction=west;fontColor=#000000;" vertex="1" parent="21">
                    <mxGeometry x="150" y="140" width="40" height="40" as="geometry"/>
                </mxCell>
                <mxCell id="31" value="" style="endArrow=none;html=1;sketch=1;fillColor=#1ba1e2;strokeColor=#006EAF;entryX=1;entryY=0;entryDx=0;entryDy=0;fontColor=#000000;" edge="1" parent="21" source="28" target="26">
                    <mxGeometry width="50" height="50" relative="1" as="geometry">
                        <mxPoint x="20" y="131.71572875253787" as="sourcePoint"/>
                        <mxPoint x="51.71572875253787" y="100" as="targetPoint"/>
                    </mxGeometry>
                </mxCell>
                <mxCell id="32" value="" style="endArrow=none;html=1;sketch=1;fillColor=#1ba1e2;strokeColor=#006EAF;entryX=0.196;entryY=-0.012;entryDx=0;entryDy=0;entryPerimeter=0;exitX=0.75;exitY=1;exitDx=0;exitDy=0;exitPerimeter=0;fontColor=#000000;" edge="1" parent="21" source="29" target="26">
                    <mxGeometry width="50" height="50" relative="1" as="geometry">
                        <mxPoint x="51.05572809000091" y="152.1114561800017" as="sourcePoint"/>
                        <mxPoint x="28.944271909999202" y="107.88854381999829" as="targetPoint"/>
                    </mxGeometry>
                </mxCell>
                <mxCell id="33" value="&lt;font&gt;&lt;span style=&quot;font-size: 10px&quot;&gt;✅&amp;nbsp; &amp;nbsp;&amp;nbsp;&lt;/span&gt;&lt;/font&gt;满二叉树&lt;br&gt;&lt;font style=&quot;font-size: 10px&quot;&gt;❌&lt;/font&gt;&amp;nbsp; &amp;nbsp;完全二叉树&lt;br&gt;&lt;span style=&quot;font-family: monospace; font-size: 0px;&quot;&gt;%3CmxGraphModel%3E%3Croot%3E%3CmxCell%20id%3D%220%22%2F%3E%3CmxCell%20id%3D%221%22%20parent%3D%220%22%2F%3E%3CmxCell%20id%3D%222%22%20value%3D%22%22%20style%3D%22endArrow%3Dnone%3Bhtml%3D1%3Bsketch%3D1%3BfillColor%3D%231ba1e2%3BstrokeColor%3D%23006EAF%3B%22%20edge%3D%221%22%20parent%3D%221%22%3E%3CmxGeometry%20width%3D%2250%22%20height%3D%2250%22%20relative%3D%221%22%20as%3D%22geometry%22%3E%3CmxPoint%20x%3D%22131.0557280900009%22%20y%3D%22282.1114561800017%22%20as%3D%22sourcePoint%22%2F%3E%3CmxPoint%20x%3D%22108.9442719099992%22%20y%3D%22237.8885438199983%22%20as%3D%22targetPoint%22%2F%3E%3C%2FmxGeometry%3E%3C%2FmxCell%3E%3C%2Froot%3E%3C%2FmxGraphModel%3E&lt;/span&gt;" style="text;html=1;align=left;verticalAlign=middle;resizable=0;points=[];autosize=1;fontSize=12;spacingTop=0;spacing=0;fontColor=#000000;" vertex="1" parent="21">
                    <mxGeometry x="30" y="190" width="100" height="50" as="geometry"/>
                </mxCell>
                <mxCell id="35" value="1" style="ellipse;whiteSpace=wrap;html=1;aspect=fixed;sketch=1;fillColor=#1ba1e2;strokeColor=#006EAF;fontSize=20;fontColor=#000000;" vertex="1" parent="1">
                    <mxGeometry x="500" y="140" width="40" height="40" as="geometry"/>
                </mxCell>
                <mxCell id="36" value="" style="endArrow=none;html=1;entryX=0;entryY=1;entryDx=0;entryDy=0;sketch=1;fillColor=#1ba1e2;strokeColor=#006EAF;fontColor=#000000;" edge="1" parent="1" target="35">
                    <mxGeometry width="50" height="50" relative="1" as="geometry">
                        <mxPoint x="474" y="206" as="sourcePoint"/>
                        <mxPoint x="380" y="200" as="targetPoint"/>
                    </mxGeometry>
                </mxCell>
                <mxCell id="37" value="" style="endArrow=none;html=1;entryX=0;entryY=0;entryDx=0;entryDy=0;exitX=1;exitY=1;exitDx=0;exitDy=0;sketch=1;fillColor=#1ba1e2;strokeColor=#006EAF;fontColor=#000000;" edge="1" parent="1" source="35">
                    <mxGeometry width="50" height="50" relative="1" as="geometry">
                        <mxPoint x="820" y="51.71572875253787" as="sourcePoint"/>
                        <mxPoint x="565.857864376268" y="205.85786437626803" as="targetPoint"/>
                    </mxGeometry>
                </mxCell>
                <mxCell id="38" value="2" style="ellipse;whiteSpace=wrap;html=1;aspect=fixed;sketch=1;fillColor=#1ba1e2;strokeColor=#006EAF;fontSize=20;direction=west;fontColor=#000000;" vertex="1" parent="1">
                    <mxGeometry x="440" y="200" width="40" height="40" as="geometry"/>
                </mxCell>
                <mxCell id="39" value="3" style="ellipse;whiteSpace=wrap;html=1;aspect=fixed;sketch=1;fillColor=#1ba1e2;strokeColor=#006EAF;fontSize=20;direction=west;fontColor=#000000;" vertex="1" parent="1">
                    <mxGeometry x="560" y="200" width="40" height="40" as="geometry"/>
                </mxCell>
                <mxCell id="40" value="6" style="ellipse;whiteSpace=wrap;html=1;aspect=fixed;sketch=1;fillColor=#1ba1e2;strokeColor=#006EAF;fontSize=20;direction=west;fontColor=#000000;" vertex="1" parent="1">
                    <mxGeometry x="390" y="280" width="40" height="40" as="geometry"/>
                </mxCell>
                <mxCell id="42" value="" style="endArrow=none;html=1;sketch=1;fillColor=#1ba1e2;strokeColor=#006EAF;entryX=1;entryY=0;entryDx=0;entryDy=0;fontColor=#000000;" edge="1" parent="1" source="40" target="38">
                    <mxGeometry width="50" height="50" relative="1" as="geometry">
                        <mxPoint x="300" y="131.71572875253787" as="sourcePoint"/>
                        <mxPoint x="331.71572875253787" y="100" as="targetPoint"/>
                    </mxGeometry>
                </mxCell>
                <mxCell id="44" value="&lt;span style=&quot;font-size: 10px&quot;&gt;❌&lt;/span&gt;&lt;font&gt;&lt;span style=&quot;font-size: 10px&quot;&gt;&amp;nbsp; &amp;nbsp;&lt;/span&gt;&lt;/font&gt;满二叉树&lt;br&gt;&lt;font style=&quot;font-size: 10px&quot;&gt;&lt;span style=&quot;&quot;&gt;✅&amp;nbsp;&lt;/span&gt;&lt;/font&gt;&amp;nbsp; 完全二叉树&lt;br&gt;&lt;span style=&quot;font-family: monospace; font-size: 0px;&quot;&gt;%3CmxGraphModel%3E%3Croot%3E%3CmxCell%20id%3D%220%22%2F%3E%3CmxCell%20id%3D%221%22%20parent%3D%220%22%2F%3E%3CmxCell%20id%3D%222%22%20value%3D%22%22%20style%3D%22endArrow%3Dnone%3Bhtml%3D1%3Bsketch%3D1%3BfillColor%3D%231ba1e2%3BstrokeColor%3D%23006EAF%3B%22%20edge%3D%221%22%20parent%3D%221%22%3E%3CmxGeometry%20width%3D%2250%22%20height%3D%2250%22%20relative%3D%221%22%20as%3D%22geometry%22%3E%3CmxPoint%20x%3D%22131.0557280900009%22%20y%3D%22282.1114561800017%22%20as%3D%22sourcePoint%22%2F%3E%3CmxPoint%20x%3D%22108.9442719099992%22%20y%3D%22237.8885438199983%22%20as%3D%22targetPoint%22%2F%3E%3C%2FmxGeometry%3E%3C%2FmxCell%3E%3C%2Froot%3E%3C%2FmxGraphModel%3E&lt;/span&gt;" style="text;html=1;align=left;verticalAlign=middle;resizable=0;points=[];autosize=1;fontSize=12;spacingTop=0;spacing=0;fontColor=#000000;" vertex="1" parent="1">
                    <mxGeometry x="480" y="330" width="90" height="50" as="geometry"/>
                </mxCell>
                <mxCell id="45" value="" style="group;fontColor=#000000;" vertex="1" connectable="0" parent="1">
                    <mxGeometry x="640" y="140" width="240" height="240" as="geometry"/>
                </mxCell>
                <mxCell id="46" value="1" style="ellipse;whiteSpace=wrap;html=1;aspect=fixed;sketch=1;fillColor=#1ba1e2;strokeColor=#006EAF;fontSize=20;fontColor=#000000;" vertex="1" parent="45">
                    <mxGeometry x="100" width="40" height="40" as="geometry"/>
                </mxCell>
                <mxCell id="47" value="" style="endArrow=none;html=1;entryX=0;entryY=1;entryDx=0;entryDy=0;sketch=1;fillColor=#1ba1e2;strokeColor=#006EAF;fontColor=#000000;" edge="1" parent="45" target="46">
                    <mxGeometry width="50" height="50" relative="1" as="geometry">
                        <mxPoint x="74" y="66" as="sourcePoint"/>
                        <mxPoint x="150" y="200" as="targetPoint"/>
                    </mxGeometry>
                </mxCell>
                <mxCell id="48" value="" style="endArrow=none;html=1;entryX=0;entryY=0;entryDx=0;entryDy=0;exitX=1;exitY=1;exitDx=0;exitDy=0;sketch=1;fillColor=#1ba1e2;strokeColor=#006EAF;fontColor=#000000;" edge="1" parent="45" source="46">
                    <mxGeometry width="50" height="50" relative="1" as="geometry">
                        <mxPoint x="590" y="51.71572875253787" as="sourcePoint"/>
                        <mxPoint x="165.85786437626803" y="65.85786437626803" as="targetPoint"/>
                    </mxGeometry>
                </mxCell>
                <mxCell id="49" value="2" style="ellipse;whiteSpace=wrap;html=1;aspect=fixed;sketch=1;fillColor=#1ba1e2;strokeColor=#006EAF;fontSize=20;direction=west;fontColor=#000000;" vertex="1" parent="45">
                    <mxGeometry x="40" y="60" width="40" height="40" as="geometry"/>
                </mxCell>
                <mxCell id="50" value="3" style="ellipse;whiteSpace=wrap;html=1;aspect=fixed;sketch=1;fillColor=#1ba1e2;strokeColor=#006EAF;fontSize=20;direction=west;fontColor=#000000;" vertex="1" parent="45">
                    <mxGeometry x="160" y="60" width="40" height="40" as="geometry"/>
                </mxCell>
                <mxCell id="51" value="6" style="ellipse;whiteSpace=wrap;html=1;aspect=fixed;sketch=1;fillColor=#1ba1e2;strokeColor=#006EAF;fontSize=20;direction=west;fontColor=#000000;" vertex="1" parent="45">
                    <mxGeometry y="140" width="40" height="40" as="geometry"/>
                </mxCell>
                <mxCell id="52" value="4" style="ellipse;whiteSpace=wrap;html=1;aspect=fixed;sketch=1;fillColor=#1ba1e2;strokeColor=#006EAF;fontSize=20;direction=west;fontColor=#000000;" vertex="1" parent="45">
                    <mxGeometry x="80" y="140" width="40" height="40" as="geometry"/>
                </mxCell>
                <mxCell id="54" value="" style="endArrow=none;html=1;exitX=1;exitY=0;exitDx=0;exitDy=0;sketch=1;fillColor=#1ba1e2;strokeColor=#006EAF;fontColor=#000000;" edge="1" parent="45" target="49">
                    <mxGeometry width="50" height="50" relative="1" as="geometry">
                        <mxPoint x="30" y="141.71572875253787" as="sourcePoint"/>
                        <mxPoint x="61.71572875253787" y="110" as="targetPoint"/>
                    </mxGeometry>
                </mxCell>
                <mxCell id="55" value="" style="endArrow=none;html=1;sketch=1;fillColor=#1ba1e2;strokeColor=#006EAF;fontColor=#000000;" edge="1" parent="45" source="52" target="49">
                    <mxGeometry width="50" height="50" relative="1" as="geometry">
                        <mxPoint x="70" y="131.71572875253787" as="sourcePoint"/>
                        <mxPoint x="101.71572875253787" y="100" as="targetPoint"/>
                    </mxGeometry>
                </mxCell>
                <mxCell id="57" value="&lt;font style=&quot;font-size: 10px&quot;&gt;&lt;span style=&quot;&quot;&gt;✅&lt;/span&gt;&amp;nbsp;&lt;/font&gt;&amp;nbsp; 满二叉树&lt;br&gt;&lt;span style=&quot;font-size: 10px;&quot;&gt;✅&lt;/span&gt;&amp;nbsp; &amp;nbsp;完全二叉树&lt;br&gt;&lt;span style=&quot;font-family: monospace; font-size: 0px;&quot;&gt;%3CmxGraphModel%3E%3Croot%3E%3CmxCell%20id%3D%220%22%2F%3E%3CmxCell%20id%3D%221%22%20parent%3D%220%22%2F%3E%3CmxCell%20id%3D%222%22%20value%3D%22%22%20style%3D%22endArrow%3Dnone%3Bhtml%3D1%3Bsketch%3D1%3BfillColor%3D%231ba1e2%3BstrokeColor%3D%23006EAF%3B%22%20edge%3D%221%22%20parent%3D%221%22%3E%3CmxGeometry%20width%3D%2250%22%20height%3D%2250%22%20relative%3D%221%22%20as%3D%22geometry%22%3E%3CmxPoint%20x%3D%22131.0557280900009%22%20y%3D%22282.1114561800017%22%20as%3D%22sourcePoint%22%2F%3E%3CmxPoint%20x%3D%22108.9442719099992%22%20y%3D%22237.8885438199983%22%20as%3D%22targetPoint%22%2F%3E%3C%2FmxGeometry%3E%3C%2FmxCell%3E%3C%2Froot%3E%3C%2FmxGraphModel%3E&lt;/span&gt;" style="text;html=1;align=left;verticalAlign=middle;resizable=0;points=[];autosize=1;fontSize=12;spacingTop=0;spacing=0;fontColor=#000000;" vertex="1" parent="45">
                    <mxGeometry x="80" y="190" width="100" height="50" as="geometry"/>
                </mxCell>
            </root>
        </mxGraphModel>
    </diagram>
</mxfile>